<svg height="512" viewBox="0 0 24 24" width="512" xmlns="http://www.w3.org/2000/svg"><path d="m8.965 24h-4.965a4 4 0 0 1 -4-4v-5a4 4 0 0 1 4-4h8.857a3.144 3.144 0 0 1 2.69 1.519l3.217-3.535a3.01 3.01 0 0 1 4.254-.2 3.022 3.022 0 0 1 .217 4.23l-6.8 7.637a10.012 10.012 0 0 1 -7.47 3.349zm-4.965-11a2 2 0 0 0 -2 2v5a2 2 0 0 0 2 2h4.965a8.005 8.005 0 0 0 5.972-2.678l6.805-7.638a1.015 1.015 0 0 0 -.072-1.421 1.029 1.029 0 0 0 -.728-.263 1 1 0 0 0 -.7.329l-4.426 4.871a3.158 3.158 0 0 1 -2.516 2.052l-5.161.738a1 1 0 0 1 -.284-1.98l5.162-.737a1.142 1.142 0 0 0 -.16-2.273zm7-3.926a1.986 1.986 0 0 1 -1.247-.436c-1.712-1.374-3.753-3.438-3.753-5.438a3.109 3.109 0 0 1 3-3.2 2.884 2.884 0 0 1 2 .817 2.884 2.884 0 0 1 2-.817 3.109 3.109 0 0 1 3 3.2c0 2-2.041 4.064-3.754 5.439a1.986 1.986 0 0 1 -1.246.435zm-2-7.074a1.115 1.115 0 0 0 -1 1.2c0 .9 1.151 2.39 3.006 3.879 1.843-1.489 2.994-2.979 2.994-3.879a1.115 1.115 0 0 0 -1-1.2 1.115 1.115 0 0 0 -1 1.2 1 1 0 0 1 -2 0 1.115 1.115 0 0 0 -1-1.2z" fill="#0057b8"/></svg>