<svg height="3.131592mm" viewBox="0 0 15.893603 3.131592" width="15.893603mm" xmlns="http://www.w3.org/2000/svg"><g fill="#0057b8" stroke-width=".264583" transform="translate(-20.144286 -51.410118)"><path d="m21.136473 53.921593c.607715 0 .992188-.372071.992188-.961182v-1.426269h-.396875v1.420068c0 .384473-.223242.620117-.595313.620117-.37207 0-.601513-.235644-.601513-.620117v-1.420068h-.390674v1.426269c0 .589111.384473.961182.992187.961182z"/><path d="m24.330077 53.890587h.415478l-.948779-2.356445h-.47749l-.948779 2.356445h.409277l.21084-.545703h1.128613zm-1.203027-.892969.42788-1.103808.427881 1.103808z"/><path d="m26.078807 51.999229c-.279053 0-.514697.130225-.651123.328663l-.02481-.297657h-.322461v1.860352h.372071v-1.041797c0-.297656.223242-.489893.520898-.489893.08062 0 .167432.0062.248047.0124v-.353467c-.04961-.0124-.09302-.0186-.142627-.0186z"/><path d="m27.275633 53.921593c.396875 0 .725537-.204639.830957-.558106l-.353466-.111621c-.07441.217041-.248047.353467-.477491.353467-.341064 0-.551904-.254248-.551904-.644922s.21084-.644922.551904-.644922c.229444 0 .396875.136426.477491.353467l.353466-.111621c-.10542-.353467-.427881-.558106-.830957-.558106-.551904 0-.930175.390674-.930175.961182s.378271.961182.930175.961182z"/><path d="m29.501854 51.999229c-.260449 0-.483691.111622-.626318.291456v-.880567h-.372071v2.480469h.372071v-1.072803c0-.291455.235644-.502295.527099-.502295.248047 0 .403077.179834.403077.496094v1.079004h.37207v-1.178223c0-.427881-.272852-.713135-.675928-.713135z"/><path d="m30.96533 53.078233h1.432471c.0124-.04341.0124-.07441.0124-.117822 0-.58291-.353467-.961182-.892969-.961182-.551904 0-.923974.390674-.923974.961182 0 .551904.334863.961182.95498.961182.390674 0 .644922-.148828.799951-.334864l-.254248-.223242c-.10542.136426-.279052.241846-.551904.241846-.328662 0-.533301-.204639-.576709-.5271zm.551904-.768945c.272852 0 .465088.179834.514698.483691h-1.060401c.05581-.297656.248047-.483691.545703-.483691z"/><path d="m33.842674 51.999229c-.279052 0-.514697.130225-.651123.328663l-.0248-.297657h-.322461v1.860352h.37207v-1.041797c0-.297656.223242-.489893.520899-.489893.08062 0 .167431.0062.248046.0124v-.353467c-.04961-.0124-.09302-.0186-.142627-.0186z"/><path d="m35.641014 52.030235-.47749 1.537891h-.148828l-.545704-1.537891h-.403076l.601514 1.537891h-.26665c-.124024.124023-.186036.26665-.186036.440283 0 .322461.21084.533301.5271.533301.310059 0 .520898-.204639.675928-.675928l.620117-1.835547zm-.892969 2.201416c-.124023 0-.204639-.08682-.204639-.217041 0-.05581.0124-.10542.04341-.148828h.458886l-.03721.111621c-.05581.161231-.142627.254248-.260449.254248z"/></g></svg>