<svg height="390.22528pt" preserveAspectRatio="xMidYMid" viewBox="0 0 1642.5879 390.22528" width="1642.5879pt" xmlns="http://www.w3.org/2000/svg">
    <g fill="#0057b8" transform="translate(0 15.611626)">
        <g transform="matrix(.1 0 0 -.1 .101452 288)">
            <path d="m2205.9323 0h1144.0677v900l-195 200 366 1039 349-1039-190-200v-900h1169.9323l-1070.4547 2879.4179-534.4776.5821c-.5401-5.2536-1039.0677-2880-1039.0677-2880z"/>
            <path d="m25 730c124.32699-456.41946 520.42239-672.73937 905-730v1960l-930 920c-3.8317604-2.4708 2.9118525-1749.2032 25-2150z" fill="#0057b8"/>
            <path d="m1260 1960v-1960c495.8439 77.597508 823.9309 297.17646 905 730 26.9396 353.8331 19.3733 2141.3084 25 2150z"/>
        </g>
        <g stroke-width="3.03795">
            <path d="m629.94037 127.78084q-11.66918-1.58226-20.5694-1.58226-32.43636 0-42.52328 21.95388v140.03016h-57.15921v-214.000895h53.99468l1.58227 25.513969q17.20709-29.469623 47.66563-29.469623 9.49357 0 17.80044 2.571175z"/>
            <path d="m742.67654 246.0549q15.82262 0 25.71176-8.70244 9.88913-8.70244 10.2847-23.14058h53.59911q-.19778 21.7561-11.86696 39.95211-11.66918 17.99823-32.0408 28.08515-20.17384 9.88913-44.69889 9.88913-45.88559 0-72.38847-29.07406-26.50289-29.27184-26.50289-80.69534v-3.75787q0-49.44568 26.3051-78.915306 26.3051-29.469623 72.19069-29.469623 40.14989 0 64.27938 22.942794 24.32728 22.745015 24.72284 60.719295h-53.59911q-.39557-16.61375-10.2847-26.89845-9.88914-10.48249-26.10732-10.48249-19.97606 0-30.26076 14.63593-10.08691 14.43813-10.08691 47.07228v5.93348q0 33.02971 10.08691 47.46785 10.08692 14.43814 30.65632 14.43814z"/>
            <path d="m920.68098 97.520085q22.74501-27.294014 57.15921-27.294014 69.61951 0 70.60841 80.893129v137.06342h-57.15919v-135.48116q0-18.39379-7.91131-27.09623-7.91131-8.90022-26.3051-8.90022-25.1184 0-36.39202 19.3827v152.09491h-57.1592v-303.794246h57.1592z"/>
            <path d="m1190.061 292.13827q-47.0723 0-76.7397-28.87627-29.4696-28.87628-29.4696-76.93748v-5.53791q0-32.23859 12.4603-57.55477 12.4603-25.513973 35.2053-39.16098 22.9428-13.844789 52.2146-13.844789 43.9078 0 69.0262 27.689579 25.3162 27.68958 25.3162 78.51974v23.33836h-136.2723q2.769 20.96496 16.6137 33.62306 14.0426 12.65809 35.4032 12.65809 33.0297 0 51.6212-23.93171l28.0852 31.44745q-12.8559 18.19601-34.8098 28.48071-21.9539 10.08692-48.6545 10.08692zm-6.5268-175.63105q-17.0094 0-27.6896 11.4714-10.4825 11.4714-13.4492 32.83193h79.5086v-4.549q-.3956-18.98714-10.2847-29.27184-9.8891-10.48249-28.0851-10.48249z"/>
            <path d="m1430.7626 127.78084q-11.6691-1.58226-20.5694-1.58226-32.4363 0-42.5232 21.95388v140.03016h-57.1592v-214.000895h53.9946l1.5823 25.513969q17.2071-29.469623 47.6656-29.469623 9.4936 0 17.8005 2.571175z"/>
            <path d="m1541.7187 207.28949 39.5565-133.107765h61.3127l-86.0355 247.228385-4.7468 11.27362q-19.1849 41.92993-63.2905 41.92993-12.4603 0-25.3162-3.75787v-43.31441l8.7025.19778q16.2182 0 24.1295-4.94457 8.1091-4.94457 12.6581-16.41596l6.7246-17.60266-74.9597-214.594245h61.5105z"/>
        </g>
    </g>
</svg>