<svg height="288pt" preserveAspectRatio="xMidYMid meet" viewBox="0 0 485 288" width="485pt" xmlns="http://www.w3.org/2000/svg">
    <g transform="matrix(.1 0 0 -.1 0 288)">
        <path fill="#0057b8" d="m2205.9323 0h1144.0677v900l-195 200 366 1039 349-1039-190-200v-900h1169.9323l-1070.4547 2879.4179-534.4776.5821c-.5401-5.2536-1039.0677-2880-1039.0677-2880z"/>
        <path fill="#0057b8" d="m25 730c124.32699-456.41946 520.42239-672.73937 905-730v1960l-930 920c-3.8317604-2.4708 2.9118525-1749.2032 25-2150z"/>
        <path fill="#0057b8" d="m1260 1960v-1960c495.8439 77.597508 823.9309 297.17646 905 730 26.9396 353.8331 19.3733 2141.3084 25 2150z"/>
    </g>
</svg>